HIERARCHY
ROOT Root
{
	OFFSET 0.00000 0.00000 0.00000
	CHANNELS 6 Xposition Yposition Zposition Zrotation Xrotation Yrotation
	JOINT Hip
	{
		OFFSET 0 0 0	
		CHANNELS 3 Zrotation Xrotation Yrotation
		JOINT Tummy
		{
			OFFSET 0 0.04 0	
			CHANNELS 3 Zrotation Xrotation Yrotation
			JOINT ChestBottom
			{
				OFFSET 0 0.194 0	
				CHANNELS 3 Zrotation Xrotation Yrotation
				JOINT ChestTop
				{
					OFFSET 0 0.166 0	
					CHANNELS 3 Zrotation Xrotation Yrotation
					JOINT LeftCollar
					{
						OFFSET 0 0.1 0	
						CHANNELS 3 Zrotation Xrotation Yrotation
						JOINT LeftUpperArm
						{
							OFFSET 0.156 -0.02 0.03	
							CHANNELS 3 Zrotation Xrotation Yrotation
							JOINT LeftForeArm
							{
								OFFSET 0.035 -0.27 -0.01	
								CHANNELS 3 Zrotation Xrotation Yrotation
								JOINT LeftHand
								{
									OFFSET 0.01 -0.27 0.01	
									CHANNELS 3 Zrotation Xrotation Yrotation
									End Site
									{
										OFFSET 0 -0.15 0
									}
								}
							}
						}
					}
					JOINT RightCollar
					{
						OFFSET 0 0.1 0	
						CHANNELS 3 Zrotation Xrotation Yrotation
						JOINT RightUpperArm
						{
							OFFSET -0.156 -0.02 0.03	
							CHANNELS 3 Zrotation Xrotation Yrotation
							JOINT RightForeArm
							{
								OFFSET -0.035 -0.27 -0.01	
								CHANNELS 3 Zrotation Xrotation Yrotation
								JOINT RightHand
								{
									OFFSET -0.01 -0.27 0.01	
									CHANNELS 3 Zrotation Xrotation Yrotation
									End Site
									{
										OFFSET 0 -0.15 0
									}
								}
							}
						}
					}
					JOINT Neck
					{
						OFFSET 0 0.1 0	
						CHANNELS 3 Zrotation Xrotation Yrotation
						JOINT Head
						{
							OFFSET 0 0.127 0.03	
							CHANNELS 3 Zrotation Xrotation Yrotation
							End Site
							{
								OFFSET 0 0.127 0.03
							}
						}
					}
				}
			}
		}
	}
	JOINT LeftHip
	{
		OFFSET 0 0 0	
		CHANNELS 3 Zrotation Xrotation Yrotation
		JOINT LeftThigh
		{
			OFFSET 0.088 -0.06 0	
			CHANNELS 3 Zrotation Xrotation Yrotation
			JOINT LeftLowerLeg
			{
				OFFSET 0 -0.39 0.02	
				CHANNELS 3 Zrotation Xrotation Yrotation
				JOINT LeftFootTop
				{
					OFFSET 0 -0.43 -0.02	
					CHANNELS 3 Zrotation Xrotation Yrotation
					JOINT LeftFootFront
					{
						OFFSET 0 -0.07 0.085	
						CHANNELS 3 Zrotation Xrotation Yrotation
						End Site
						{
							OFFSET 0 -0.005 0.09
						}
					}
				}
				JOINT LeftHeel
				{
					OFFSET 0 -0.43 -0.02	
					CHANNELS 3 Zrotation Xrotation Yrotation
					End Site
					{
						OFFSET 0 -0.075 -0.05
					}
				}
			}
		}
	}
	JOINT RightHip
	{
		OFFSET 0 0 0	
		CHANNELS 3 Zrotation Xrotation Yrotation
		JOINT RightThigh
		{
			OFFSET -0.088 -0.06 0	
			CHANNELS 3 Zrotation Xrotation Yrotation
			JOINT RightLowerLeg
			{
				OFFSET 0 -0.39 0.02	
				CHANNELS 3 Zrotation Xrotation Yrotation
				JOINT RightFootTop
				{
					OFFSET 0 -0.43 -0.02	
					CHANNELS 3 Zrotation Xrotation Yrotation
					JOINT RightFootFront
					{
						OFFSET 0 -0.07 0.085	
						CHANNELS 3 Zrotation Xrotation Yrotation
						End Site
						{
							OFFSET 0 -0.005 0.09
						}
					}
				}
				JOINT RightHeel
				{
					OFFSET 0 -0.43 -0.02	
					CHANNELS 3 Zrotation Xrotation Yrotation
					End Site
					{
						OFFSET 0 -0.075 -0.05
					}
				}
			}
		}
	}
}
MOTION
Frames: 9
Frame Time: 0.05
-0.013475 0.97446 -0.42991 -0 0 -0 -13.964 5.5954 143.24 -4.2547 -2.129 9.2047 -4.2547 -2.129 9.2047 -3.5975 -1.7429 7.7423 -0 0 -0 116.51 -46.728 86.987 38.983 -30.022 11.102 -1.3061 -0.1193 -1.6463 -0 0 -0 -138.65 -49.92 -100.2 -4.2309 -40.908 6.9757 2.0995 0.21243 -0.27986 -0 0 -0 -0 0 -0 -13.964 5.5954 143.24 -6.8051 -14.867 -0.53958 -32.122 48.93 -0.13161 -0 0 -0 -0 0 2.1344e-07 -0 0 -0 -13.964 5.5954 143.24 -19.657 -12.012 5.2452 1.4905 15.191 10.37 -0 0 -0 -1.9612e-07 -1.6227 1.2246e-06 -0 0 -0 
-0.0012309 0.97741 -0.43805 -0 0 -0 -15.828 6.8333 140.47 -5.8023 -2.8372 11.029 -5.8023 -2.8372 11.029 -4.9116 -2.3092 9.2829 -0 0 -0 126.14 -50.329 94.373 44.075 -37.811 11.776 -1.7223 -0.13721 -0.36923 -0 0 -0 -135.53 -53.323 -101.82 -0.59618 -53.052 5.6518 2.586 0.60432 -1.3004 -0 0 -0 -0 0 -0 -15.828 6.8333 140.47 -10.317 -18.18 -0.11963 -22.39 59.055 0.53169 -0 0 -0 -0 0 1.0672e-07 -0 0 -0 -15.828 6.8333 140.47 -14.068 -11.133 5.1243 -9.6593 15.047 14.558 -0 0 -0 -3.3843e-08 -3.539 -1.0955e-06 -0 0 -0 
0.014537 0.97796 -0.45282 -0 0 -0 -16.073 9.2149 135.39 -6.5797 -2.4662 13.651 -6.5797 -2.4662 13.651 -5.5687 -1.9675 11.486 -0 0 -0 135 -51.823 102.51 45.086 -46.537 11.024 -1.5085 0.62289 0.84856 -0 0 -0 -135.96 -56.199 -101.93 8.7549 -63.382 5.4941 1.5125 1.5907 0.081201 -0 0 -0 -0 0 -0 -16.073 9.2149 135.39 -13.057 -18.247 1.8168 -8.0213 61.175 -6.4371 -0 0 -0 -1.7075e-06 -2.5444e-14 1.7075e-06 -0 0 -0 -16.073 9.2149 135.39 -9.7286 -7.2127 5.2945 -18.277 10.911 14.674 -0 0 -0 -3.3141e-09 -3.5523 -1.0688e-07 -0 0 -0 
0.028514 0.97618 -0.47282 -0 0 -0 -15.923 10.646 130.42 -6.0898 -2.7995 15.214 -6.0898 -2.7995 15.214 -5.168 -2.2446 12.799 -0 0 -0 135.34 -52.624 102.74 42.166 -55.224 10.082 -0.94613 0.91646 -0.15597 -0 0 -0 -140.06 -61.318 -104.14 31.665 -68.957 17.597 0.64247 1.8142 -0.24428 -0 0 -0 -0 0 -0 -15.923 10.646 130.42 -15.201 -19.038 -0.42474 1.482 58.239 -10.185 -0 0 -0 0 0 -1.2807e-06 -0 0 -0 -15.923 10.646 130.42 -7.8769 -2.788 3.2298 -22.281 4.6589 13.333 -0 0 -0 8.3992e-07 -2.5945 -6.2147e-07 -0 0 -0 
0.037325 0.97248 -0.49615 -0 0 -0 -15.814 9.945 126.4 -4.8081 -3.2574 16 -4.8081 -3.2574 16 -4.1022 -2.6481 13.457 -0 0 -0 133.47 -52.48 101.62 34.185 -62.028 4.7022 -0.846 0.97412 0.41887 -0 0 -0 -145.95 -66.773 -104.85 58.138 -70.92 32.635 -1.9173 2.245 3.0704 -0 0 -0 -0 0 -0 -15.814 9.945 126.4 -15.008 -24.654 -10.61 -3.7033 58.123 3.4046 -0 0 -0 1.7075e-06 -6.3611e-15 -4.2689e-07 -0 0 -0 -15.814 9.945 126.4 -6.4456 -1.5841 1.2729 -23.765 1.3563 13.341 -0 0 -0 4.9073e-07 -2.7235 2.6805e-06 -0 0 -0 
0.039151 0.96743 -0.51982 -0 0 -0 -14.283 8.3062 123.39 -3.2702 -2.2786 16.235 -3.2702 -2.2786 16.235 -2.7921 -1.8531 13.645 -0 0 -0 134.25 -50.096 104.32 19.48 -65.566 -6.1908 0.67715 1.0112 -0.41371 -0 0 -0 -153.93 -68.689 -106.32 73.554 -71.005 43.071 -2.3675 2.1181 3.6842 -0 0 -0 -0 0 -0 -14.283 8.3062 123.39 -11.421 -31.358 -13.786 -9.9783 60.293 12.928 -0 0 -0 1.7075e-06 0 -0 -0 0 -0 -14.283 8.3062 123.39 -3.6663 -0.52031 -0.987 -25.276 0.88915 12.025 -0 0 -0 6.0089e-07 -4.3111 4.6149e-06 -0 0 -0 
0.033373 0.96181 -0.54087 -0 0 -0 -11.198 8.0003 122.07 -2.0711 -0.23969 15.267 -2.0711 -0.23969 15.267 -1.7452 -0.16436 12.825 -0 0 -0 135.41 -46.753 104.7 11.433 -65.659 -12.129 0.66703 0.76841 0.10122 -0 0 -0 -166.54 -68.35 -115.32 71.453 -68.383 43.175 -0.71781 1.5684 2.935 -0 0 -0 -0 0 -0 -11.198 8.0003 122.07 -9.4487 -34.304 -11.259 -10.223 65.097 12.468 -0 0 -0 1.7075e-06 0 -0 -0 0 -0 -11.198 8.0003 122.07 -1.6568 1.3302 -0.15874 -27.091 3.1862 7.5901 -0 0 -0 -2.3575e-07 -5.419 4.0488e-06 -0 0 -0 
0.021174 0.95655 -0.55716 -0 0 -0 -9.8183 6.8424 123.06 -0.76472 0.67893 13.115 -0.76472 0.67893 13.115 -0.63221 0.58234 11.016 -0 0 -0 135.39 -44.237 101.22 10.901 -63.311 -10.824 0.019811 1.1397 -0.375 -0 0 -0 179.04 -69.829 -127.84 63.375 -63.078 44.743 0.9097 1.0565 2.3584 -0 0 -0 -0 0 -0 -9.8183 6.8424 123.06 -9.9589 -38.778 -14.721 -18.566 72.27 25.512 -0 0 -0 1.7075e-06 0 -0 -0 0 -0 -9.8183 6.8424 123.06 0.10151 0.46486 -1.7133 -29.681 4.6789 9.1477 -0 0 -0 -8.5786e-07 -6.4569 -4.8389e-08 -0 0 -0 
0.0053756 0.95256 -0.56821 -0 0 -0 -8.1803 6.6508 124.9 0.22724 0.64985 11.021 0.22723 0.64985 11.021 0.19935 0.54312 9.2576 -0 0 -0 133.78 -46.186 97.574 7.5479 -60.796 -14.996 -1.7905 1.4176 4.2925 -0 0 -0 174.36 -73.536 -133.2 59.214 -55.878 54.48 1.4577 0.62758 -1.2717 -0 0 -0 -0 0 -0 -8.1803 6.6508 124.9 -10.755 -41.746 -19.066 -36.069 75.514 42.064 -0 0 -0 -0 0 -0 -0 0 -0 -8.1803 6.6508 124.9 0.82853 -0.42306 -2.1805 -31.087 7.261 8.4174 -0 0 -0 -4.9466e-08 -6.5989 -8.5804e-07 -0 0 -0 
